<svg id="_3stars" data-name="3stars" xmlns="http://www.w3.org/2000/svg" viewBox="0 0 469.77 402.35"><defs><style>.cls-1{fill:#040000;}</style></defs><title>StarCreates_logo</title><polygon class="cls-1" points="150.06 111.39 198.78 205.75 304.13 219.11 229.45 294.61 249.29 398.93 154.41 351.23 61.33 402.35 77.38 297.37 0 224.63 104.8 207.46 150.06 111.39"/><polygon class="cls-1" points="277.83 108.82 236.95 95.51 203.06 121.56 202.79 78.67 167.3 54.31 208.02 41.1 219.97 0 245.41 34.73 288.29 33.69 263.29 68.36 277.83 108.82"/><polygon class="cls-1" points="288.44 101.11 352.28 100.24 387.76 47.15 408.32 107.6 469.77 124.94 418.63 163.17 421.13 226.97 368.97 190.15 309.06 212.24 327.96 151.25 288.44 101.11"/></svg>