<svg id="logo_txt" xmlns="http://www.w3.org/2000/svg" viewBox="0 0 803 215.21"><defs><style>.cls-1,.cls-2{fill:#231815;}.cls-2{font-size:94.3px;font-family:SourceHanSansJP-Heavy-83pv-RKSJ-H, Source Han Sans JP;letter-spacing:-0.13em;}.cls-3{letter-spacing:-0.19em;}.cls-4{letter-spacing:-0.17em;}.cls-5{fill:#fff;}.cls-6{fill:none;}</style></defs><title>logo_text</title><polygon class="cls-1" points="42.27 31.37 55.99 57.95 85.66 61.72 64.63 82.98 70.22 112.36 43.49 98.93 17.27 113.32 21.79 83.76 0 63.27 29.52 58.43 42.27 31.37"/><polygon class="cls-1" points="81.24 28.48 99.22 28.23 109.22 13.28 115 30.31 132.31 35.19 117.91 45.96 118.61 63.93 103.92 53.56 87.05 59.78 92.37 42.6 81.24 28.48"/><polygon class="cls-1" points="78.25 30.65 66.74 26.9 57.19 34.24 57.12 22.16 47.12 15.3 58.59 11.58 61.96 0 69.12 9.78 81.2 9.49 74.16 19.25 78.25 30.65"/><text class="cls-2" transform="translate(135.59 108.79) scale(1 1.08)">スター <tspan class="cls-3" x="255.82" y="0">ク</tspan><tspan class="cls-4" x="332.58" y="0">リ</tspan><tspan x="410.94" y="0">エイツ</tspan></text><polygon class="cls-5" points="367.41 63.94 369.29 67.75 373.49 68.36 370.45 71.31 371.17 75.5 367.41 73.52 363.66 75.5 364.38 71.31 361.34 68.36 365.54 67.75 367.41 63.94"/><polygon class="cls-5" points="207.3 85.77 210.11 91.48 216.41 92.39 211.85 96.83 212.93 103.1 207.3 100.14 201.66 103.1 202.74 96.83 198.18 92.39 204.48 91.48 207.3 85.77"/><polygon class="cls-5" points="265.87 34.13 273.38 49.34 290.17 51.78 278.02 63.62 280.89 80.35 265.87 72.45 250.85 80.35 253.72 63.62 241.57 51.78 258.36 49.34 265.87 34.13"/><polygon class="cls-5" points="605.37 38.88 607.25 42.68 611.45 43.29 608.41 46.25 609.13 50.43 605.37 48.46 601.62 50.43 602.34 46.25 599.3 43.29 603.5 42.68 605.37 38.88"/><polygon class="cls-5" points="762.11 89.01 763.99 92.82 768.19 93.43 765.15 96.39 765.87 100.57 762.11 98.59 758.36 100.57 759.07 96.39 756.04 93.43 760.23 92.82 762.11 89.01"/><polygon class="cls-5" points="494.47 34.13 497.29 39.83 503.58 40.75 499.03 45.19 500.1 51.46 494.47 48.5 488.84 51.46 489.91 45.19 485.36 40.75 491.65 39.83 494.47 34.13"/><polygon class="cls-5" points="687.01 71.33 691.7 80.84 702.2 82.36 694.6 89.76 696.4 100.21 687.01 95.28 677.62 100.21 679.42 89.76 671.82 82.36 682.32 80.84 687.01 71.33"/><rect id="_スライス_" data-name="&lt;スライス&gt;" class="cls-6" y="0.08" width="803" height="118"/></svg>